{
    "asset" : {
        "generator" : "Khronos glTF Blender I/O v1.1.45",
        "version" : "2.0"
    },
    "scene" : 0,
    "scenes" : [
        {
            "name" : "Scene",
            "nodes" : [
                0
            ]
        }
    ],
    "nodes" : [
        {
            "mesh" : 0,
            "name" : "CP_Pirate_Blackbeard_Anchor",
            "rotation" : [
                0,
                0.7071125507354736,
                0.7071009874343872,
                -1.1520325671199316e-07
            ],
            "scale" : [
                0.002794913249090314,
                0.002794913249090314,
                0.002794913249090314
            ],
            "translation" : [
                0,
                0,
                1.8359614610671997
            ]
        }
    ],
    "materials" : [
        {
            "doubleSided" : true,
            "emissiveFactor" : [
                0,
                0,
                0
            ],
            "name" : "M_Pirate_BlackBeard_Rope.001",
            "pbrMetallicRoughness" : {
                "baseColorFactor" : [
                    0.27230000495910645,
                    0.1826999932527542,
                    0.09610000252723694,
                    1
                ],
                "metallicFactor" : 0.5,
                "roughnessFactor" : 0.5527864098548889
            }
        },
        {
            "doubleSided" : true,
            "emissiveFactor" : [
                0,
                0,
                0
            ],
            "name" : "M_Pirate_BlackBeard_Metal001.001",
            "pbrMetallicRoughness" : {
                "baseColorFactor" : [
                    0.07407407462596893,
                    0.07407407462596893,
                    0.07407407462596893,
                    1
                ],
                "metallicFactor" : 0.5,
                "roughnessFactor" : 0.5527864098548889
            }
        }
    ],
    "meshes" : [
        {
            "name" : "Mesh.001",
            "primitives" : [
                {
                    "attributes" : {
                        "POSITION" : 0,
                        "NORMAL" : 1,
                        "TEXCOORD_0" : 2
                    },
                    "indices" : 3,
                    "material" : 0
                },
                {
                    "attributes" : {
                        "POSITION" : 4,
                        "NORMAL" : 5,
                        "TEXCOORD_0" : 6
                    },
                    "indices" : 7,
                    "material" : 1
                }
            ]
        }
    ],
    "accessors" : [
        {
            "bufferView" : 0,
            "componentType" : 5126,
            "count" : 1164,
            "max" : [
                106.22333526611328,
                17.193758010864258,
                64.771728515625
            ],
            "min" : [
                -83.67473602294922,
                -127.14873504638672,
                -73.95401763916016
            ],
            "type" : "VEC3"
        },
        {
            "bufferView" : 1,
            "componentType" : 5126,
            "count" : 1164,
            "type" : "VEC3"
        },
        {
            "bufferView" : 2,
            "componentType" : 5126,
            "count" : 1164,
            "type" : "VEC2"
        },
        {
            "bufferView" : 3,
            "componentType" : 5123,
            "count" : 1752,
            "type" : "SCALAR"
        },
        {
            "bufferView" : 4,
            "componentType" : 5126,
            "count" : 926,
            "max" : [
                233.44268798828125,
                -5.7220458984375e-06,
                39.85924530029297
            ],
            "min" : [
                -242.33624267578125,
                -497.6663818359375,
                -37.841941833496094
            ],
            "type" : "VEC3"
        },
        {
            "bufferView" : 5,
            "componentType" : 5126,
            "count" : 926,
            "type" : "VEC3"
        },
        {
            "bufferView" : 6,
            "componentType" : 5126,
            "count" : 926,
            "type" : "VEC2"
        },
        {
            "bufferView" : 7,
            "componentType" : 5123,
            "count" : 1320,
            "type" : "SCALAR"
        }
    ],
    "bufferViews" : [
        {
            "buffer" : 0,
            "byteLength" : 13968,
            "byteOffset" : 0
        },
        {
            "buffer" : 0,
            "byteLength" : 13968,
            "byteOffset" : 13968
        },
        {
            "buffer" : 0,
            "byteLength" : 9312,
            "byteOffset" : 27936
        },
        {
            "buffer" : 0,
            "byteLength" : 3504,
            "byteOffset" : 37248
        },
        {
            "buffer" : 0,
            "byteLength" : 11112,
            "byteOffset" : 40752
        },
        {
            "buffer" : 0,
            "byteLength" : 11112,
            "byteOffset" : 51864
        },
        {
            "buffer" : 0,
            "byteLength" : 7408,
            "byteOffset" : 62976
        },
        {
            "buffer" : 0,
            "byteLength" : 2640,
            "byteOffset" : 70384
        }
    ],
    "buffers" : [
        {
            "byteLength" : 73024,
            "uri" : "data:application/octet-stream;base64,"
        }
    ]
}
