{
    "asset" : {
        "generator" : "Khronos glTF Blender I/O v1.1.45",
        "version" : "2.0"
    },
    "scene" : 0,
    "scenes" : [
        {
            "name" : "Scene",
            "nodes" : [
                3,
                5,
                6
            ]
        }
    ],
    "nodes" : [
        {
            "mesh" : 0,
            "name" : "node-0",
            "scale" : [
                0.00018414754595141858,
                0.00018414754595141858,
                0.00018414754595141858
            ],
            "translation" : [
                0,
                0.007945695891976357,
                0
            ]
        },
        {
            "children" : [
                0
            ],
            "name" : "Node.002",
            "scale" : [
                51.51567840576172,
                51.51567840576172,
                51.51567840576172
            ],
            "translation" : [
                -1.112563133239746,
                -6.502230167388916,
                -1.1923809051513672
            ]
        },
        {
            "children" : [
                1
            ],
            "name" : "Node.001",
            "translation" : [
                1.112563133239746,
                7.243472576141357,
                1.1923809051513672
            ]
        },
        {
            "children" : [
                2
            ],
            "name" : "Node",
            "rotation" : [
                0.7071068286895752,
                0,
                0,
                0.7071067094802856
            ]
        },
        {
            "name" : "headLight",
            "translation" : [
                -54.09716033935547,
                27.048580169677734,
                -27.048580169677734
            ]
        },
        {
            "children" : [
                4
            ],
            "name" : "Camera",
            "rotation" : [
                0.5078175663948059,
                -0.22016426920890808,
                0.13606904447078705,
                0.8216655254364014
            ],
            "translation" : [
                -51.21817398071289,
                51.13835144042969,
                97.86874389648438
            ]
        },
        {
            "name" : "keyLight",
            "rotation" : [
                -0.7113732099533081,
                -0.11029913276433945,
                0.1598774492740631,
                0.6754416823387146
            ],
            "scale" : [
                0,
                1.8701844055613037e-06,
                54.63814163208008
            ],
            "translation" : [
                -53.322174072265625,
                108.53099822998047,
                -46.695377349853516
            ]
        }
    ],
    "materials" : [
        {
            "doubleSided" : true,
            "emissiveFactor" : [
                0,
                0,
                0
            ],
            "name" : "lambert2SG",
            "pbrMetallicRoughness" : {
                "baseColorTexture" : {
                    "index" : 0,
                    "texCoord" : 0
                },
                "metallicFactor" : 0,
                "roughnessFactor" : 0.9699476361274719
            }
        }
    ],
    "meshes" : [
        {
            "name" : "buffer-0-mesh-0",
            "primitives" : [
                {
                    "attributes" : {
                        "POSITION" : 0,
                        "NORMAL" : 1,
                        "TEXCOORD_0" : 2
                    },
                    "indices" : 3,
                    "material" : 0
                }
            ]
        }
    ],
    "textures" : [
        {
            "source" : 0
        }
    ],
    "images" : [
        {
            "bufferView" : 4,
            "mimeType" : "image/png",
            "name" : "Tex_Salmon"
        }
    ],
    "accessors" : [
        {
            "bufferView" : 0,
            "componentType" : 5126,
            "count" : 1518,
            "max" : [
                21.931333541870117,
                82.20278930664062,
                26.888046264648438
            ],
            "min" : [
                -19.299428939819336,
                -102.35305786132812,
                -35.406227111816406
            ],
            "type" : "VEC3"
        },
        {
            "bufferView" : 1,
            "componentType" : 5126,
            "count" : 1518,
            "type" : "VEC3"
        },
        {
            "bufferView" : 2,
            "componentType" : 5126,
            "count" : 1518,
            "type" : "VEC2"
        },
        {
            "bufferView" : 3,
            "componentType" : 5123,
            "count" : 1518,
            "type" : "SCALAR"
        }
    ],
    "bufferViews" : [
        {
            "buffer" : 0,
            "byteLength" : 18216,
            "byteOffset" : 0
        },
        {
            "buffer" : 0,
            "byteLength" : 18216,
            "byteOffset" : 18216
        },
        {
            "buffer" : 0,
            "byteLength" : 12144,
            "byteOffset" : 36432
        },
        {
            "buffer" : 0,
            "byteLength" : 3036,
            "byteOffset" : 48576
        },
        {
            "buffer" : 0,
            "byteLength" : 113,
            "byteOffset" : 51612
        }
    ],
    "buffers" : [
        {
            "byteLength" : 51728,
            "uri" : "data:application/octet-stream;base64,"
        }
    ]
}
