{
    "asset" : {
        "generator" : "Khronos glTF Blender I/O v1.1.45",
        "version" : "2.0"
    },
    "scene" : 0,
    "scenes" : [
        {
            "name" : "Scene",
            "nodes" : [
                0
            ]
        }
    ],
    "nodes" : [
        {
            "mesh" : 0,
            "name" : "CP_Tribal_Helmet003_LOD1",
            "rotation" : [
                0.7071068286895752,
                -0.7071067690849304,
                0,
                -1.1520231879558196e-07
            ],
            "scale" : [
                0.012794431298971176,
                0.012794431298971176,
                0.012794431298971176
            ],
            "translation" : [
                -0.0007061958312988281,
                0,
                -1.4140043258666992
            ]
        }
    ],
    "materials" : [
        {
            "doubleSided" : true,
            "emissiveFactor" : [
                0,
                0,
                0
            ],
            "name" : "M_Tribal_Leaf001",
            "pbrMetallicRoughness" : {
                "baseColorFactor" : [
                    0.30399999022483826,
                    0.04800000041723251,
                    0.04000000283122063,
                    1
                ],
                "metallicFactor" : 1,
                "roughnessFactor" : 0.5527864098548889
            }
        },
        {
            "doubleSided" : true,
            "emissiveFactor" : [
                0,
                0,
                0
            ],
            "name" : "M_Tribal_Leaf002",
            "pbrMetallicRoughness" : {
                "baseColorFactor" : [
                    0.35199999809265137,
                    0.1679999977350235,
                    0.0560000017285347,
                    1
                ],
                "metallicFactor" : 1,
                "roughnessFactor" : 0.5527864098548889
            }
        },
        {
            "doubleSided" : true,
            "emissiveFactor" : [
                0,
                0,
                0
            ],
            "name" : "M_Tribal_Bone001",
            "pbrMetallicRoughness" : {
                "baseColorFactor" : [
                    0.35359999537467957,
                    0.2816281318664551,
                    0.219939187169075,
                    1
                ],
                "metallicFactor" : 1,
                "roughnessFactor" : 0.5527864098548889
            }
        },
        {
            "doubleSided" : true,
            "emissiveFactor" : [
                0,
                0,
                0
            ],
            "name" : "M_Tribal_Antler",
            "pbrMetallicRoughness" : {
                "baseColorFactor" : [
                    0.19439999759197235,
                    0.14070022106170654,
                    0.0946727991104126,
                    1
                ],
                "metallicFactor" : 1,
                "roughnessFactor" : 0.5527864098548889
            }
        },
        {
            "doubleSided" : true,
            "emissiveFactor" : [
                0,
                0,
                0
            ],
            "name" : "M_Tribal_Skull_Teeth",
            "pbrMetallicRoughness" : {
                "baseColorFactor" : [
                    0.2895999848842621,
                    0.21256566047668457,
                    0.14653760194778442,
                    1
                ],
                "metallicFactor" : 1,
                "roughnessFactor" : 0.5527864098548889
            }
        },
        {
            "doubleSided" : true,
            "emissiveFactor" : [
                0,
                0,
                0
            ],
            "name" : "M_Tribal_Leather002",
            "pbrMetallicRoughness" : {
                "baseColorFactor" : [
                    0.04480000212788582,
                    0.020223315805196762,
                    0.014380799606442451,
                    1
                ],
                "metallicFactor" : 1,
                "roughnessFactor" : 0.5527864098548889
            }
        }
    ],
    "meshes" : [
        {
            "name" : "Mesh.001",
            "primitives" : [
                {
                    "attributes" : {
                        "POSITION" : 0,
                        "NORMAL" : 1,
                        "TEXCOORD_0" : 2
                    },
                    "indices" : 3,
                    "material" : 0
                },
                {
                    "attributes" : {
                        "POSITION" : 4,
                        "NORMAL" : 5,
                        "TEXCOORD_0" : 6
                    },
                    "indices" : 7,
                    "material" : 1
                },
                {
                    "attributes" : {
                        "POSITION" : 8,
                        "NORMAL" : 9,
                        "TEXCOORD_0" : 10
                    },
                    "indices" : 11,
                    "material" : 2
                },
                {
                    "attributes" : {
                        "POSITION" : 12,
                        "NORMAL" : 13,
                        "TEXCOORD_0" : 14
                    },
                    "indices" : 15,
                    "material" : 3
                },
                {
                    "attributes" : {
                        "POSITION" : 16,
                        "NORMAL" : 17,
                        "TEXCOORD_0" : 18
                    },
                    "indices" : 19,
                    "material" : 4
                },
                {
                    "attributes" : {
                        "POSITION" : 20,
                        "NORMAL" : 21,
                        "TEXCOORD_0" : 22
                    },
                    "indices" : 23,
                    "material" : 5
                }
            ]
        }
    ],
    "accessors" : [
        {
            "bufferView" : 0,
            "componentType" : 5126,
            "count" : 39,
            "max" : [
                10.956886291503906,
                4.456512451171875,
                -173.0651397705078
            ],
            "min" : [
                9.050779342651367,
                -3.5442914962768555,
                -191.29681396484375
            ],
            "type" : "VEC3"
        },
        {
            "bufferView" : 1,
            "componentType" : 5126,
            "count" : 39,
            "type" : "VEC3"
        },
        {
            "bufferView" : 2,
            "componentType" : 5126,
            "count" : 39,
            "type" : "VEC2"
        },
        {
            "bufferView" : 3,
            "componentType" : 5123,
            "count" : 138,
            "type" : "SCALAR"
        },
        {
            "bufferView" : 4,
            "componentType" : 5126,
            "count" : 39,
            "max" : [
                13.485494613647461,
                8.767377853393555,
                -172.33836364746094
            ],
            "min" : [
                8.132226943969727,
                1.5394630432128906,
                -192.0638885498047
            ],
            "type" : "VEC3"
        },
        {
            "bufferView" : 5,
            "componentType" : 5126,
            "count" : 39,
            "type" : "VEC3"
        },
        {
            "bufferView" : 6,
            "componentType" : 5126,
            "count" : 39,
            "type" : "VEC2"
        },
        {
            "bufferView" : 7,
            "componentType" : 5123,
            "count" : 138,
            "type" : "SCALAR"
        },
        {
            "bufferView" : 8,
            "componentType" : 5126,
            "count" : 88,
            "max" : [
                12.552132606506348,
                27.96963882446289,
                -171.26577758789062
            ],
            "min" : [
                -12.606358528137207,
                -8.111879348754883,
                -205.3497314453125
            ],
            "type" : "VEC3"
        },
        {
            "bufferView" : 9,
            "componentType" : 5126,
            "count" : 88,
            "type" : "VEC3"
        },
        {
            "bufferView" : 10,
            "componentType" : 5126,
            "count" : 88,
            "type" : "VEC2"
        },
        {
            "bufferView" : 11,
            "componentType" : 5123,
            "count" : 480,
            "type" : "SCALAR"
        },
        {
            "bufferView" : 12,
            "componentType" : 5126,
            "count" : 278,
            "max" : [
                58.46869659423828,
                29.705591201782227,
                -194.32899475097656
            ],
            "min" : [
                -58.46869659423828,
                -2.6088883876800537,
                -255.74717712402344
            ],
            "type" : "VEC3"
        },
        {
            "bufferView" : 13,
            "componentType" : 5126,
            "count" : 278,
            "type" : "VEC3"
        },
        {
            "bufferView" : 14,
            "componentType" : 5126,
            "count" : 278,
            "type" : "VEC2"
        },
        {
            "bufferView" : 15,
            "componentType" : 5123,
            "count" : 1620,
            "type" : "SCALAR"
        },
        {
            "bufferView" : 16,
            "componentType" : 5126,
            "count" : 84,
            "max" : [
                7.686431407928467,
                15.485928535461426,
                -176.77462768554688
            ],
            "min" : [
                -7.891254425048828,
                6.410480499267578,
                -184.009521484375
            ],
            "type" : "VEC3"
        },
        {
            "bufferView" : 17,
            "componentType" : 5126,
            "count" : 84,
            "type" : "VEC3"
        },
        {
            "bufferView" : 18,
            "componentType" : 5126,
            "count" : 84,
            "type" : "VEC2"
        },
        {
            "bufferView" : 19,
            "componentType" : 5123,
            "count" : 180,
            "type" : "SCALAR"
        },
        {
            "bufferView" : 20,
            "componentType" : 5126,
            "count" : 14,
            "max" : [
                10.367632865905762,
                8.342869758605957,
                -186.90252685546875
            ],
            "min" : [
                -10.524226188659668,
                -7.850513935089111,
                -195.2180633544922
            ],
            "type" : "VEC3"
        },
        {
            "bufferView" : 21,
            "componentType" : 5126,
            "count" : 14,
            "type" : "VEC3"
        },
        {
            "bufferView" : 22,
            "componentType" : 5126,
            "count" : 14,
            "type" : "VEC2"
        },
        {
            "bufferView" : 23,
            "componentType" : 5123,
            "count" : 36,
            "type" : "SCALAR"
        }
    ],
    "bufferViews" : [
        {
            "buffer" : 0,
            "byteLength" : 468,
            "byteOffset" : 0
        },
        {
            "buffer" : 0,
            "byteLength" : 468,
            "byteOffset" : 468
        },
        {
            "buffer" : 0,
            "byteLength" : 312,
            "byteOffset" : 936
        },
        {
            "buffer" : 0,
            "byteLength" : 276,
            "byteOffset" : 1248
        },
        {
            "buffer" : 0,
            "byteLength" : 468,
            "byteOffset" : 1524
        },
        {
            "buffer" : 0,
            "byteLength" : 468,
            "byteOffset" : 1992
        },
        {
            "buffer" : 0,
            "byteLength" : 312,
            "byteOffset" : 2460
        },
        {
            "buffer" : 0,
            "byteLength" : 276,
            "byteOffset" : 2772
        },
        {
            "buffer" : 0,
            "byteLength" : 1056,
            "byteOffset" : 3048
        },
        {
            "buffer" : 0,
            "byteLength" : 1056,
            "byteOffset" : 4104
        },
        {
            "buffer" : 0,
            "byteLength" : 704,
            "byteOffset" : 5160
        },
        {
            "buffer" : 0,
            "byteLength" : 960,
            "byteOffset" : 5864
        },
        {
            "buffer" : 0,
            "byteLength" : 3336,
            "byteOffset" : 6824
        },
        {
            "buffer" : 0,
            "byteLength" : 3336,
            "byteOffset" : 10160
        },
        {
            "buffer" : 0,
            "byteLength" : 2224,
            "byteOffset" : 13496
        },
        {
            "buffer" : 0,
            "byteLength" : 3240,
            "byteOffset" : 15720
        },
        {
            "buffer" : 0,
            "byteLength" : 1008,
            "byteOffset" : 18960
        },
        {
            "buffer" : 0,
            "byteLength" : 1008,
            "byteOffset" : 19968
        },
        {
            "buffer" : 0,
            "byteLength" : 672,
            "byteOffset" : 20976
        },
        {
            "buffer" : 0,
            "byteLength" : 360,
            "byteOffset" : 21648
        },
        {
            "buffer" : 0,
            "byteLength" : 168,
            "byteOffset" : 22008
        },
        {
            "buffer" : 0,
            "byteLength" : 168,
            "byteOffset" : 22176
        },
        {
            "buffer" : 0,
            "byteLength" : 112,
            "byteOffset" : 22344
        },
        {
            "buffer" : 0,
            "byteLength" : 72,
            "byteOffset" : 22456
        }
    ],
    "buffers" : [
        {
            "byteLength" : 22528,
            "uri" : "data:application/octet-stream;base64,"
        }
    ]
}
