{
    "asset" : {
        "generator" : "Khronos glTF Blender I/O v1.1.45",
        "version" : "2.0"
    },
    "scene" : 0,
    "scenes" : [
        {
            "name" : "Scene",
            "nodes" : [
                17
            ]
        }
    ],
    "nodes" : [
        {
            "name" : "M_Head",
            "rotation" : [
                0.7071068286895752,
                0,
                0,
                0.7071068286895752
            ],
            "translation" : [
                0.24119983613491058,
                23.04768466949463,
                4.534451961517334
            ]
        },
        {
            "children" : [
                0
            ],
            "name" : "M_Neck",
            "rotation" : [
                9.422613800325053e-09,
                0,
                0,
                1
            ],
            "translation" : [
                0,
                34.68804931640625,
                -0.6627236604690552
            ]
        },
        {
            "name" : "M_Hand_Left",
            "rotation" : [
                0.7071068286895752,
                0,
                0,
                0.7071068286895752
            ],
            "translation" : [
                39.98423385620117,
                -1.29248046875,
                -0.009614229202270508
            ]
        },
        {
            "children" : [
                2
            ],
            "name" : "M_Elbow_Left",
            "rotation" : [
                1.7768133631079763e-09,
                0,
                0,
                1
            ],
            "translation" : [
                33.51502227783203,
                -1.386657476425171,
                -0.3761489987373352
            ]
        },
        {
            "children" : [
                3
            ],
            "name" : "M_Arm_Left",
            "rotation" : [
                7.107253452431905e-09,
                0,
                0,
                1
            ],
            "translation" : [
                14.765166282653809,
                26.143264770507812,
                -2.065668821334839
            ]
        },
        {
            "name" : "M_Hand_Right",
            "rotation" : [
                0.7071068286895752,
                0,
                0,
                0.7071068286895752
            ],
            "translation" : [
                -39.984004974365234,
                -1.292999267578125,
                0.010000109672546387
            ]
        },
        {
            "children" : [
                5
            ],
            "name" : "M_Elbow_Right",
            "rotation" : [
                1.7768151394648157e-09,
                0,
                0,
                1
            ],
            "translation" : [
                -33.51499938964844,
                -1.3869932889938354,
                0.37599998712539673
            ]
        },
        {
            "children" : [
                6
            ],
            "name" : "M_Arm_Right",
            "rotation" : [
                7.107257005145584e-09,
                0,
                0,
                1
            ],
            "translation" : [
                -14.765199661254883,
                26.143142700195312,
                -2.0656704902648926
            ]
        },
        {
            "children" : [
                1,
                4,
                7
            ],
            "name" : "M_Torso",
            "rotation" : [
                -1.5076182080520084e-08,
                0,
                0,
                1
            ],
            "translation" : [
                0,
                27.78339385986328,
                4.812936305999756
            ]
        },
        {
            "name" : "M_Foot_Left",
            "rotation" : [
                0.7071068286895752,
                0,
                0,
                0.7071068286895752
            ],
            "translation" : [
                -9.5367431640625e-07,
                -48.545013427734375,
                -1.2040612697601318
            ]
        },
        {
            "children" : [
                9
            ],
            "name" : "M_Knee_Left",
            "rotation" : [
                -1.286418083168428e-09,
                0,
                0,
                1
            ],
            "translation" : [
                -0.2621908187866211,
                -46.327110290527344,
                -0.7425298094749451
            ]
        },
        {
            "children" : [
                10
            ],
            "name" : "M_Leg_Left",
            "rotation" : [
                -5.145674109030551e-09,
                0,
                0,
                1
            ],
            "translation" : [
                8.238892555236816,
                -8.16705322265625,
                2.9876599311828613
            ]
        },
        {
            "name" : "M_Foot_Right",
            "rotation" : [
                0.7071068286895752,
                0,
                0,
                0.7071068286895752
            ],
            "translation" : [
                -9.5367431640625e-07,
                -48.54498291015625,
                -1.2039999961853027
            ]
        },
        {
            "children" : [
                12
            ],
            "name" : "M_Knee_Right",
            "rotation" : [
                1.2864216358821068e-09,
                0,
                0,
                1
            ],
            "translation" : [
                0.2621898651123047,
                -46.327003479003906,
                -0.743000864982605
            ]
        },
        {
            "children" : [
                13
            ],
            "name" : "M_Leg_Right",
            "rotation" : [
                -7.718526262578962e-09,
                0,
                0,
                1
            ],
            "translation" : [
                -8.238889694213867,
                -8.167068481445312,
                2.9876554012298584
            ]
        },
        {
            "children" : [
                8,
                11,
                14
            ],
            "name" : "M_Hip",
            "rotation" : [
                -0.7071068286895752,
                0,
                0,
                0.7071068286895752
            ],
            "translation" : [
                0,
                -4.733644962310791,
                -107.56746673583984
            ]
        },
        {
            "mesh" : 0,
            "name" : "TabsUnit_LOD0",
            "skin" : 0
        },
        {
            "children" : [
                16,
                15
            ],
            "name" : "Armature",
            "rotation" : [
                0.7071068286895752,
                0,
                0,
                0.7071067094802856
            ],
            "scale" : [
                0.009999999776482582,
                0.009999999776482582,
                0.009999999776482582
            ]
        }
    ],
    "materials" : [
        {
            "doubleSided" : true,
            "emissiveFactor" : [
                0,
                0,
                0
            ],
            "name" : "StingrayPBS1",
            "pbrMetallicRoughness" : {
                "baseColorFactor" : [
                    0.5879999995231628,
                    0.5879999995231628,
                    0.5879999995231628,
                    1
                ],
                "metallicFactor" : 0,
                "roughnessFactor" : 0.5527864098548889
            }
        }
    ],
    "meshes" : [
        {
            "name" : "Mesh",
            "primitives" : [
                {
                    "attributes" : {
                        "POSITION" : 0,
                        "NORMAL" : 1,
                        "TEXCOORD_0" : 2,
                        "COLOR_0" : 3,
                        "JOINTS_0" : 4,
                        "WEIGHTS_0" : 5
                    },
                    "indices" : 6,
                    "material" : 0
                }
            ]
        }
    ],
    "skins" : [
        {
            "inverseBindMatrices" : 7,
            "joints" : [
                15,
                8,
                1,
                4,
                3,
                7,
                6,
                11,
                10,
                14,
                13
            ],
            "name" : "Armature"
        }
    ],
    "accessors" : [
        {
            "bufferView" : 0,
            "componentType" : 5126,
            "count" : 1892,
            "max" : [
                0.9604662656784058,
                1.9938595294952393,
                0.14680540561676025
            ],
            "min" : [
                -0.9604665637016296,
                0.01018010824918747,
                -0.14567452669143677
            ],
            "type" : "VEC3"
        },
        {
            "bufferView" : 1,
            "componentType" : 5126,
            "count" : 1892,
            "type" : "VEC3"
        },
        {
            "bufferView" : 2,
            "componentType" : 5126,
            "count" : 1892,
            "type" : "VEC2"
        },
        {
            "bufferView" : 3,
            "componentType" : 5126,
            "count" : 1892,
            "type" : "VEC4"
        },
        {
            "bufferView" : 4,
            "componentType" : 5123,
            "count" : 1892,
            "type" : "VEC4"
        },
        {
            "bufferView" : 5,
            "componentType" : 5126,
            "count" : 1892,
            "type" : "VEC4"
        },
        {
            "bufferView" : 6,
            "componentType" : 5123,
            "count" : 2772,
            "type" : "SCALAR"
        },
        {
            "bufferView" : 7,
            "componentType" : 5126,
            "count" : 11,
            "type" : "MAT4"
        }
    ],
    "bufferViews" : [
        {
            "buffer" : 0,
            "byteLength" : 22704,
            "byteOffset" : 0
        },
        {
            "buffer" : 0,
            "byteLength" : 22704,
            "byteOffset" : 22704
        },
        {
            "buffer" : 0,
            "byteLength" : 15136,
            "byteOffset" : 45408
        },
        {
            "buffer" : 0,
            "byteLength" : 30272,
            "byteOffset" : 60544
        },
        {
            "buffer" : 0,
            "byteLength" : 15136,
            "byteOffset" : 90816
        },
        {
            "buffer" : 0,
            "byteLength" : 30272,
            "byteOffset" : 105952
        },
        {
            "buffer" : 0,
            "byteLength" : 5544,
            "byteOffset" : 136224
        },
        {
            "buffer" : 0,
            "byteLength" : 704,
            "byteOffset" : 141768
        }
    ],
    "buffers" : [
        {
            "byteLength" : 142472,
            "uri" : "data:application/octet-stream;base64,"
        }
    ]
}
